<?xml version="1.0" encoding="UTF-8" standalone="no"?>
<!-- Created with Inkscape (http://www.inkscape.org/) -->

<svg
   xmlns:dc="http://purl.org/dc/elements/1.1/"
   xmlns:cc="http://creativecommons.org/ns#"
   xmlns:rdf="http://www.w3.org/1999/02/22-rdf-syntax-ns#"
   xmlns:svg="http://www.w3.org/2000/svg"
   xmlns="http://www.w3.org/2000/svg"
   xmlns:xlink="http://www.w3.org/1999/xlink"
   xmlns:sodipodi="http://sodipodi.sourceforge.net/DTD/sodipodi-0.dtd"
   xmlns:inkscape="http://www.inkscape.org/namespaces/inkscape"
   width="248.17459mm"
   height="80.542145mm"
   viewBox="0 0 248.17459 80.542145"
   version="1.1"
   id="svg2363"
   inkscape:version="0.92.4 (5da689c313, 2019-01-14)"
   sodipodi:docname="kevem_text_color_border_path.svg">
  <defs
     id="defs2357">
    <inkscape:tag
       id="Set 1"
       inkscape:label="Set 1"
       inkscape:expanded="true">
      <inkscape:tagref
         xlink:href="#rect2920-9-1"
         id="tagref3668" />
      <inkscape:tagref
         xlink:href="#text2918"
         id="tagref3670" />
      <inkscape:tagref
         xlink:href="#rect2920-9"
         id="tagref3672" />
    </inkscape:tag>
  </defs>
  <sodipodi:namedview
     id="base"
     pagecolor="#ffffff"
     bordercolor="#666666"
     borderopacity="1.0"
     inkscape:pageopacity="0.0"
     inkscape:pageshadow="2"
     inkscape:zoom="0.7"
     inkscape:cx="177.78071"
     inkscape:cy="114.65443"
     inkscape:document-units="mm"
     inkscape:current-layer="layer1"
     showgrid="false"
     inkscape:window-width="1920"
     inkscape:window-height="1174"
     inkscape:window-x="1200"
     inkscape:window-y="0"
     inkscape:window-maximized="1"
     fit-margin-top="0"
     fit-margin-left="0"
     fit-margin-right="0"
     fit-margin-bottom="0"
     showguides="false" />
  <metadata
     id="metadata2360">
    <rdf:RDF>
      <cc:Work
         rdf:about="">
        <dc:format>image/svg+xml</dc:format>
        <dc:type
           rdf:resource="http://purl.org/dc/dcmitype/StillImage" />
        <dc:title></dc:title>
      </cc:Work>
    </rdf:RDF>
  </metadata>
  <g
     inkscape:groupmode="layer"
     id="layer3"
     inkscape:label="Background Square"
     transform="translate(-3.9133966,-4.9221387)">
    <rect
       style="opacity:1;fill:#375a7f;fill-opacity:1;stroke:none;stroke-width:0.78717548;stroke-miterlimit:4;stroke-dasharray:none;stroke-opacity:1;paint-order:stroke fill markers"
       id="square"
       width="248.17459"
       height="80.542145"
       x="3.9133966"
       y="4.9221387"
       ry="17.764881"
       inkscape:label="#bgsquare"
       rx="17.764881" />
  </g>
  <g
     inkscape:label="Logo"
     inkscape:groupmode="layer"
     id="layer1"
     transform="translate(-9.7720277,-206.81949)">
    <g
       aria-label="K"
       transform="scale(0.99667321,1.0033379)"
       style="font-style:normal;font-variant:normal;font-weight:bold;font-stretch:normal;font-size:19.11628532px;line-height:7.46729898px;font-family:'Hussar Woodtype';-inkscape-font-specification:'Hussar Woodtype Bold';font-variant-ligatures:normal;font-variant-caps:normal;font-variant-numeric:normal;font-feature-settings:normal;text-align:start;letter-spacing:0px;word-spacing:0px;writing-mode:lr-tb;text-anchor:start;fill:#ffffff;fill-opacity:1;stroke:none;stroke-width:0.5;stroke-miterlimit:4;stroke-dasharray:none"
       id="text2918">
      <path
         d="m 33.862621,225.96251 h 10.780913 v 15.26129 l 15.541317,-15.26129 h 12.51706 l -20.133706,19.79768 22.205881,22.00986 H 61.276943 L 44.643534,251.30466 v 16.46539 H 33.862621 Z"
         style="font-style:normal;font-variant:normal;font-weight:bold;font-stretch:normal;font-size:57.34885788px;font-family:mry_KacstQurn;-inkscape-font-specification:'mry_KacstQurn Bold';fill:#ffffff;fill-opacity:1;stroke-width:0.5;stroke-miterlimit:4;stroke-dasharray:none;paint-order:stroke fill markers"
         id="path843"
         inkscape:connector-curvature="0" />
    </g>
    <rect
       style="fill:#ffffff;fill-opacity:1;stroke:#000000;stroke-width:0.09009896;stroke-miterlimit:4;stroke-dasharray:none;stroke-opacity:1"
       id="rect2920-9-1"
       width="232.03674"
       height="6.6965561"
       x="17.153378"
       y="214.48549"
       ry="4.1577382"
       rx="4.1577382" />
    <rect
       style="fill:#ffffff;fill-opacity:1;stroke:#000000;stroke-width:0.0902446;stroke-miterlimit:4;stroke-dasharray:none;stroke-opacity:1"
       id="rect2920-9-1-4"
       width="232.79256"
       height="6.6964107"
       x="16.445381"
       y="273.58994"
       ry="4.1577382"
       rx="4.1577382" />
    <g
       aria-label="evem"
       style="font-style:normal;font-variant:normal;font-weight:bold;font-stretch:normal;font-size:16.93333244px;line-height:6.61458302px;font-family:'Hussar Woodtype';-inkscape-font-specification:'Hussar Woodtype Bold';font-variant-ligatures:normal;font-variant-caps:normal;font-variant-numeric:normal;font-feature-settings:normal;text-align:start;letter-spacing:0px;word-spacing:0px;writing-mode:lr-tb;text-anchor:start;fill:#000000;fill-opacity:1;stroke:none;stroke-width:0.26458332"
       id="text3740">
      <path
         d="m 88.092186,245.77911 c 0.1524,-1.016 0.5588,-2.1336 1.3208,-2.9464 0.8128,-0.7112 1.8796,-1.2192 3.2512,-1.2192 1.2192,0 2.1844,0.4064 3.048,1.1684 0.6604,0.762 1.2192,1.778 1.4732,2.9972 z m 11.3284,7.3152 c -3.81,3.81 -7.874,3.2512 -10.16,1.1684 -0.8128,-0.8636 -1.3716,-2.032 -1.4732,-3.2004 h 18.592804 l 0.3556,-0.3556 c 0,-4.9784 -1.6256,-8.89 -4.2164,-11.4808 l -0.3556,-0.3556 c -2.489204,-2.4892 -5.892804,-3.81 -9.753604,-3.81 -4.0132,0 -7.62,1.6256 -10.2616,4.2164 l -0.0508,0.0508 -0.3556,0.3556 c -2.4892,2.4892 -4.0132,5.842 -4.0132,9.5504 0,3.6576 1.524,7.0104 4.0132,9.4996 l 0.3556,0.3556 c 2.5908,2.6416 6.2484,4.2672 10.3124,4.2672 4.5212,0 8.382004,-1.1176 11.328404,-4.0132 l 0.0508,-0.0508 0.3556,-0.3556 c 0.762,-0.762 1.524,-1.6764 2.1336,-2.7432 l -0.3556,-0.3556 z"
         style="font-size:50.79999924px;fill:#ffffff;fill-opacity:1;stroke-width:0.26458332"
         id="path846"
         inkscape:connector-curvature="0" />
      <path
         d="m 122.97591,236.17791 -0.3556,-0.3556 h -10.668 l -0.3556,0.3556 14.0208,26.0604 0.3556,0.3556 h 6.096 l 0.3556,-0.3556 13.9192,-26.0604 -0.3556,-0.3556 h -10.668 l -0.3556,0.3556 -5.9436,13.3604 z"
         style="font-size:50.79999924px;fill:#ffffff;fill-opacity:1;stroke-width:0.26458332"
         id="path848"
         inkscape:connector-curvature="0" />
      <path
         d="m 161.61328,245.77911 c 0.1524,-1.016 0.5588,-2.1336 1.3208,-2.9464 0.8128,-0.7112 1.8796,-1.2192 3.2512,-1.2192 1.2192,0 2.1844,0.4064 3.048,1.1684 0.6604,0.762 1.2192,1.778 1.4732,2.9972 z m 11.3284,7.3152 c -3.81,3.81 -7.874,3.2512 -10.16,1.1684 -0.8128,-0.8636 -1.3716,-2.032 -1.4732,-3.2004 h 18.5928 l 0.3556,-0.3556 c 0,-4.9784 -1.6256,-8.89 -4.2164,-11.4808 l -0.3556,-0.3556 c -2.4892,-2.4892 -5.8928,-3.81 -9.7536,-3.81 -4.0132,0 -7.62,1.6256 -10.2616,4.2164 l -0.0508,0.0508 -0.3556,0.3556 c -2.4892,2.4892 -4.0132,5.842 -4.0132,9.5504 0,3.6576 1.524,7.0104 4.0132,9.4996 l 0.3556,0.3556 c 2.5908,2.6416 6.2484,4.2672 10.3124,4.2672 4.5212,0 8.382,-1.1176 11.3284,-4.0132 l 0.0508,-0.0508 0.3556,-0.3556 c 0.762,-0.762 1.524,-1.6764 2.1336,-2.7432 l -0.3556,-0.3556 z"
         style="font-size:50.79999924px;fill:#ffffff;fill-opacity:1;stroke-width:0.26458332"
         id="path850"
         inkscape:connector-curvature="0" />
      <path
         d="m 196.03981,262.59391 0.3556,-0.3556 v -12.3952 c 0,-2.794 0.4064,-4.572 1.3716,-5.7404 0.762,-0.6604 1.8796,-1.016 3.3528,-1.016 1.4732,0 2.5908,0.3048 3.4036,1.016 0.6096,0.7112 1.016,1.8288 1.2192,3.3528 v 14.7828 l 0.3556,0.3556 h 9.144 l 0.3556,-0.3556 v -14.7828 c 0.2032,-1.524 0.5588,-2.5908 1.2192,-3.3528 0.8128,-0.6604 1.9304,-1.016 3.4036,-1.016 1.4732,0 2.6416,0.3048 3.4544,1.016 0.9652,1.1176 1.3716,2.9464 1.3716,5.7404 v 12.3952 l 0.3556,0.3556 h 8.9916 l 0.3556,-0.3556 v -14.5796 c 0,-4.0132 -0.9144,-6.9088 -2.8956,-8.89 v -0.0508 l -0.3556,-0.3556 c -2.286,-2.286 -6.0452,-3.302 -11.2776,-3.302 -3.8608,0 -6.2992,0.1016 -9.0424,2.8448 l -0.3556,0.3556 c -0.0508,0.0508 0,0.0508 -0.1016,0.1524 -0.1016,-0.1524 -0.3048,-0.3556 -0.508,-0.5588 l -0.0508,-0.0508 -0.4064,-0.3556 c -2.286,-2.286 -4.9784,-2.3876 -8.636,-2.3876 -3.0988,0 -5.2832,0.6096 -6.9596,1.6256 v -0.8636 l -0.3556,-0.3556 h -7.112 l -0.3556,0.3556 v 26.416 l 0.3556,0.3556 z"
         style="font-size:50.79999924px;fill:#ffffff;fill-opacity:1;stroke-width:0.26458332"
         id="path852"
         inkscape:connector-curvature="0" />
    </g>
  </g>
</svg>
