<?xml version="1.0" standalone="no"?>
<!DOCTYPE svg PUBLIC "-//W3C//DTD SVG 20010904//EN"
 "http://www.w3.org/TR/2001/REC-SVG-20010904/DTD/svg10.dtd">
<svg version="1.0" xmlns="http://www.w3.org/2000/svg"
 width="308.000000pt" height="308.000000pt" viewBox="0 0 308.000000 308.000000"
 preserveAspectRatio="xMidYMid meet">

<g transform="translate(0.000000,308.000000) scale(0.100000,-0.100000)"
fill="#000000" stroke="none">
<path d="M792 2890 c-123 -11 -225 -34 -300 -70 l-62 -29 0 -1284 0 -1284 48
22 c82 39 186 58 355 63 199 6 303 -7 516 -64 240 -65 332 -82 498 -94 243
-17 571 10 681 55 l32 14 0 628 c0 345 3 934 7 1309 l6 680 -133 -22 c-136
-23 -402 -44 -552 -44 -118 0 -310 24 -471 60 -264 58 -444 75 -625 60z m498
-184 c310 -69 627 -81 1073 -40 l77 7 0 -1165 0 -1164 -52 -17 c-108 -33 -183
-39 -421 -34 -275 5 -420 29 -694 113 l-83 25 0 1150 c0 1091 1 1150 18 1145
9 -3 46 -12 82 -20z m-251 -62 c26 -33 26 -54 1 -82 -26 -27 -39 -30 -175 -35
-87 -4 -126 -11 -184 -32 -81 -30 -112 -28 -136 8 -25 39 -4 81 53 105 97 41
191 58 339 61 77 1 83 0 102 -25z m-9 -324 c25 -25 26 -64 1 -89 -15 -15 -41
-20 -137 -26 -90 -5 -140 -14 -206 -36 -67 -22 -94 -26 -112 -19 -63 24 -51
100 20 130 94 41 184 57 322 59 80 1 95 -2 112 -19z m16 -338 c19 -24 17 -45
-5 -74 -19 -23 -27 -25 -146 -31 -95 -5 -143 -13 -200 -32 -105 -35 -139 -33
-156 11 -30 80 101 141 326 153 125 7 160 2 181 -27z"/>
<path d="M1333 2535 c-25 -17 -30 -54 -13 -85 19 -35 224 -79 465 -100 173
-15 468 2 505 29 31 23 37 61 12 90 l-18 23 -186 -11 c-219 -14 -376 -4 -568
36 -175 36 -173 36 -197 18z"/>
<path d="M1327 2203 c-22 -26 -22 -66 2 -87 48 -43 303 -87 546 -93 244 -7
402 8 428 39 24 28 18 67 -13 89 -22 15 -35 17 -105 9 -200 -22 -493 -7 -685
35 -129 28 -153 29 -173 8z"/>
<path d="M1345 1888 c-27 -15 -35 -28 -35 -59 0 -36 25 -55 100 -74 207 -54
522 -78 744 -56 131 13 153 20 162 56 17 69 -22 88 -153 75 -261 -25 -535 -3
-783 65 -8 2 -24 -1 -35 -7z"/>
<path d="M1332 1554 c-18 -12 -22 -24 -20 -52 3 -31 9 -40 40 -55 53 -26 263
-65 425 -79 201 -17 486 2 520 34 28 27 30 61 3 88 -19 19 -28 20 -128 13
-271 -20 -520 -3 -724 48 -92 23 -88 23 -116 3z"/>
</g>
</svg>
